<svg version="1.1" id="Layer_1" xmlns="http://www.w3.org/2000/svg" xmlns:xlink="http://www.w3.org/1999/xlink" x="0px" y="0px"
	 width="100%" viewBox="0 0 504 495" enable-background="new 0 0 504 495" xml:space="preserve">
<path fill="#000000" opacity="1.000000" stroke="none" 
	d="
M1.000000,175.000000 
	C1.000000,116.681122 1.000000,58.862240 1.000000,1.021681 
	C168.943558,1.021681 336.887115,1.021681 504.915344,1.021681 
	C504.915344,165.902283 504.915344,330.804626 504.915344,495.853485 
	C337.000092,495.853485 169.000061,495.853485 1.000000,495.853485 
	C1.000000,389.112762 1.000000,282.306366 1.000000,175.000000 
M475.366333,311.978455 
	C478.201477,297.240479 482.413971,282.607086 483.542694,267.739563 
	C485.157776,246.465729 485.020966,224.933304 480.680023,203.866165 
	C475.362061,178.057663 466.492828,153.522858 453.192474,130.579285 
	C438.709320,105.595306 420.147034,84.130447 397.984802,65.913635 
	C380.029541,51.154842 360.068512,39.461739 338.349152,30.818892 
	C312.539276,20.548306 285.878448,14.693542 258.093506,14.109637 
	C239.734085,13.723812 221.556976,15.082883 203.545380,19.012146 
	C178.673096,24.438080 155.173279,33.206963 133.327972,46.328217 
	C110.969208,59.757885 91.246826,76.253906 74.337685,96.180107 
	C63.067451,109.461266 53.270378,123.702103 45.162327,139.069397 
	C30.433619,166.984879 21.708687,196.836639 19.359085,228.213181 
	C17.814409,248.840729 18.182152,269.686462 22.298647,290.106079 
	C27.242887,314.631653 35.282841,338.083954 47.572842,360.076599 
	C60.955818,384.025116 77.847137,404.917145 98.454460,423.010468 
	C117.567024,439.791443 138.747147,453.105255 162.160828,462.901093 
	C189.482376,474.331879 218.045456,480.196228 247.597473,480.745972 
	C257.797150,480.935669 268.151611,480.392517 278.210663,478.781219 
	C293.481842,476.334991 308.867554,473.699829 323.641388,469.267578 
	C345.092346,462.832092 364.913910,452.478210 383.446960,439.779968 
	C399.635406,428.688202 414.272797,415.731720 427.049469,400.970490 
	C442.921234,382.633514 456.257233,362.448242 465.399445,339.815857 
	C468.984680,330.940186 471.824097,321.763275 475.366333,311.978455 
z"/>
<path fill="#F8F8F8" opacity="1.000000" stroke="none" 
	d="
M475.184753,312.351013 
	C471.824097,321.763275 468.984680,330.940186 465.399445,339.815857 
	C456.257233,362.448242 442.921234,382.633514 427.049469,400.970490 
	C414.272797,415.731720 399.635406,428.688202 383.446960,439.779968 
	C364.913910,452.478210 345.092346,462.832092 323.641388,469.267578 
	C308.867554,473.699829 293.481842,476.334991 278.210663,478.781219 
	C268.151611,480.392517 257.797150,480.935669 247.597473,480.745972 
	C218.045456,480.196228 189.482376,474.331879 162.160828,462.901093 
	C138.747147,453.105255 117.567024,439.791443 98.454460,423.010468 
	C77.847137,404.917145 60.955818,384.025116 47.572842,360.076599 
	C35.282841,338.083954 27.242887,314.631653 22.298647,290.106079 
	C18.182152,269.686462 17.814409,248.840729 19.359085,228.213181 
	C21.708687,196.836639 30.433619,166.984879 45.162327,139.069397 
	C53.270378,123.702103 63.067451,109.461266 74.337685,96.180107 
	C91.246826,76.253906 110.969208,59.757885 133.327972,46.328217 
	C155.173279,33.206963 178.673096,24.438080 203.545380,19.012146 
	C221.556976,15.082883 239.734085,13.723812 258.093506,14.109637 
	C285.878448,14.693542 312.539276,20.548306 338.349152,30.818892 
	C360.068512,39.461739 380.029541,51.154842 397.984802,65.913635 
	C420.147034,84.130447 438.709320,105.595306 453.192474,130.579285 
	C466.492828,153.522858 475.362061,178.057663 480.680023,203.866165 
	C485.020966,224.933304 485.157776,246.465729 483.542694,267.739563 
	C482.413971,282.607086 478.201477,297.240479 475.184753,312.351013 
M323.210297,38.174610 
	C284.151154,24.673571 244.540161,22.466309 204.123291,31.439934 
	C87.747795,57.278393 10.434850,171.773056 35.856449,292.418427 
	C68.335854,446.558624 229.945374,501.041565 343.246368,447.451080 
	C446.675232,398.530029 478.731476,298.527557 470.772003,222.305817 
	C462.721893,145.216675 408.729553,66.647675 323.210297,38.174610 
z"/>
<path fill="#010202" opacity="1.000000" stroke="none" 
	d="
M323.576782,38.313751 
	C408.729553,66.647675 462.721893,145.216675 470.772003,222.305817 
	C478.731476,298.527557 446.675232,398.530029 343.246368,447.451080 
	C229.945374,501.041565 68.335854,446.558624 35.856449,292.418427 
	C10.434850,171.773056 87.747795,57.278393 204.123291,31.439934 
	C244.540161,22.466309 284.151154,24.673571 323.576782,38.313751 
M229.726318,143.158585 
	C229.802338,143.089890 229.878357,143.021194 230.518829,143.071075 
	C230.825180,142.854675 231.131531,142.638260 232.141617,142.344299 
	C232.880859,141.965012 233.674088,141.663742 234.351334,141.194901 
	C247.552292,132.056290 262.220001,129.183716 278.014709,130.652878 
	C281.965729,131.020370 285.990173,130.598099 290.831177,130.743866 
	C295.774231,130.468750 300.869141,130.845673 305.618683,129.739639 
	C310.614471,128.576263 315.279907,125.994202 320.710419,123.822052 
	C322.477295,122.533821 324.244171,121.245583 326.095825,120.706543 
	C326.029785,121.456070 325.963745,122.205605 325.405640,123.401703 
	C320.703613,131.980881 312.739502,136.159698 303.177216,139.285385 
	C301.048187,139.593689 298.928589,140.035538 296.788452,140.187134 
	C287.701691,140.830780 278.561523,141.011429 269.538940,142.143021 
	C265.296509,142.675110 261.275940,144.975952 257.632874,146.301346 
	C268.276398,149.862915 278.421143,153.235123 288.547089,156.662857 
	C290.885315,157.454376 293.159180,158.436005 296.047974,159.875336 
	C298.407806,160.189880 300.835114,161.012543 303.113007,160.710022 
	C307.452637,160.133667 311.706909,158.914917 316.859955,158.086670 
	C321.906403,159.052002 326.952820,160.017334 332.522095,161.414413 
	C337.294250,165.737900 342.066376,170.061401 346.943573,175.067017 
	C348.161682,178.118530 349.379761,181.170044 350.902069,184.983627 
	C346.660889,183.833527 343.847961,182.764236 340.941254,182.345093 
	C334.507812,181.417435 326.057770,187.300064 327.205872,192.028534 
	C329.450256,201.271790 332.769592,210.071198 341.399078,216.466843 
	C344.216248,218.650635 347.033386,220.834412 349.440918,223.542175 
	C345.490387,225.441986 341.539825,227.341797 337.223572,229.417465 
	C334.598114,241.170029 342.263275,247.946426 351.410034,254.076706 
	C344.989075,261.863556 336.877045,261.125214 328.157227,259.860535 
	C331.683563,269.001129 336.812195,275.843445 345.294983,280.828827 
	C346.275909,281.741852 347.256836,282.654907 348.237793,283.567932 
	C348.150848,284.190033 348.063934,284.812134 347.977020,285.434235 
	C343.235504,286.287201 338.465851,287.939453 333.760193,287.773773 
	C328.812317,287.599548 323.925690,285.685669 319.008911,284.531189 
	C312.852631,299.582062 320.388916,320.803131 334.574341,329.590973 
	C334.045471,329.785706 333.516571,329.980408 332.142822,330.006287 
	C318.597168,328.853485 309.197662,321.815613 302.925323,309.313904 
	C301.350861,320.004883 299.851013,330.425934 300.441620,340.727112 
	C301.128510,352.707001 305.607819,363.678345 314.769287,372.756561 
	C314.832825,373.121735 314.896362,373.486938 314.280334,373.624756 
	C310.211670,371.709839 306.142975,369.794922 301.698029,367.333893 
	C288.642212,358.317627 280.887085,346.237457 280.098114,329.835052 
	C278.407654,335.089935 276.890106,340.212128 276.525360,345.415100 
	C275.318237,362.634888 278.991638,378.347809 292.358643,391.377777 
	C296.873291,394.354370 301.387939,397.330994 306.396851,400.788086 
	C309.448151,402.106964 312.499481,403.425842 315.550812,404.744690 
	C315.522034,405.063873 315.493225,405.383057 315.464447,405.702240 
	C312.973572,405.850555 310.482697,405.998871 307.173584,406.027344 
	C302.784821,405.325958 298.396057,404.624603 293.214691,403.897064 
	C287.804474,401.999298 282.394287,400.101532 276.420410,397.779663 
	C273.680145,396.077026 270.939880,394.374390 267.828430,392.130371 
	C256.950439,382.462128 253.588501,369.709961 253.729263,354.850098 
	C241.732452,369.963959 242.724396,396.708984 255.300537,411.703247 
	C258.486694,414.820160 261.672882,417.937103 265.227966,421.641418 
	C267.610474,423.136505 269.820679,425.137848 272.411865,426.019653 
	C277.557068,427.770599 282.912170,428.904663 289.000031,430.220001 
	C292.819092,429.224213 296.638153,428.228424 301.233307,427.266113 
	C306.818665,425.483368 312.404022,423.700653 318.721802,421.885284 
	C327.553467,417.430511 336.385132,412.975769 345.915466,408.311981 
	C355.973541,400.939301 366.031616,393.566620 376.675049,385.850647 
	C379.625641,383.166321 383.051819,380.847290 385.443604,377.733673 
	C395.245361,364.973846 405.888367,352.661194 414.084473,338.910004 
	C429.379181,313.248993 437.449585,285.085480 438.088867,254.065948 
	C437.163910,241.027283 436.238922,227.988617 435.256134,214.092606 
	C432.546234,204.004639 429.836334,193.916672 427.075043,183.084503 
	C423.765625,175.655762 420.456177,168.227005 417.001740,160.123810 
	C413.720428,154.670929 410.439148,149.218033 406.976685,143.117584 
	C403.979187,139.088318 400.981720,135.059052 397.747101,130.400894 
	C394.948029,127.229797 392.148956,124.058693 389.063751,120.256485 
	C385.856140,117.114372 382.648560,113.972260 379.061554,110.251854 
	C374.394531,106.469269 369.727509,102.686684 364.729797,98.315323 
	C358.570709,94.167084 352.411652,90.018845 345.753021,85.364632 
	C342.205200,83.494888 338.657410,81.625137 334.669342,79.271568 
	C332.641571,78.470657 330.613770,77.669746 328.120270,76.263443 
	C323.745483,74.524178 319.370697,72.784920 314.358551,70.626083 
	C307.576294,68.710686 300.794067,66.795288 293.230255,64.828545 
	C286.486450,63.559990 279.742645,62.291439 272.200867,60.778130 
	C266.173645,60.446701 260.146423,60.115273 253.399277,59.470428 
	C242.597565,60.363052 231.795837,61.255680 220.210907,62.081955 
	C214.809769,63.350044 209.408615,64.618134 203.210556,65.883736 
	C196.139282,68.290886 189.067993,70.698036 181.278412,73.137665 
	C171.787506,78.053719 162.296600,82.969765 152.109360,87.934067 
	C148.529037,90.297462 144.823837,92.493004 141.387360,95.049759 
	C99.226067,126.417854 74.014709,167.990723 66.466568,220.086853 
	C63.616039,239.760742 62.778763,259.463287 66.703941,279.968475 
	C69.054153,289.011810 71.404366,298.055145 73.810852,307.862183 
	C78.814774,318.396820 83.818695,328.931488 88.939743,340.125458 
	C94.930832,348.433655 100.921913,356.741882 107.144402,365.683228 
	C112.675125,371.507416 118.205841,377.331604 124.049316,383.756805 
	C127.425766,386.880829 130.802216,390.004822 134.700455,393.611603 
	C137.143280,386.691040 139.053574,380.518524 141.478836,374.555481 
	C147.929337,358.695648 158.999237,346.477936 172.902496,335.738678 
	C176.633270,333.219238 180.364044,330.699799 184.666687,328.047943 
	C185.103943,327.676178 185.541183,327.304413 186.611130,326.780762 
	C187.833450,325.885895 189.055771,324.991028 190.687500,324.029938 
	C190.687500,324.029938 191.001785,323.759338 191.629913,323.580292 
	C193.776779,322.098206 195.923660,320.616089 198.651627,319.033508 
	C199.093872,318.666199 199.536118,318.298889 200.649811,317.768402 
	C206.465500,313.902313 212.281174,310.036194 218.768723,306.006592 
	C223.776993,302.155670 229.308487,298.813538 233.667297,294.331085 
	C239.761200,288.064331 246.050858,281.556458 250.323532,274.051147 
	C256.768646,262.729767 251.165451,250.918396 238.193115,246.906738 
	C235.729523,246.590790 233.266281,246.004684 230.802292,246.001572 
	C210.579117,245.975906 197.953278,259.601074 184.474594,271.098938 
	C191.056580,271.098938 197.531128,270.765320 203.954041,271.198059 
	C209.727005,271.587006 215.784027,272.200623 218.114532,279.487213 
	C218.064529,279.650757 218.014511,279.814331 217.254074,279.939148 
	C215.169464,279.012939 213.084854,278.086761 210.271194,277.000916 
	C209.344589,276.733032 208.417984,276.465149 206.736832,275.956787 
	C201.118576,277.075989 195.408066,277.863983 189.905090,279.397003 
	C182.781677,281.381409 175.770554,282.763519 168.304825,281.499878 
	C165.346771,280.999207 162.170715,281.786560 159.093933,281.987488 
	C158.941635,282.533417 158.789322,283.079376 158.637024,283.625336 
	C160.531235,284.432098 162.397705,285.833008 164.325378,285.922974 
	C168.445267,286.115295 172.617599,285.820251 176.730347,285.373901 
	C182.329514,284.766235 187.878784,283.315643 193.475388,283.160095 
	C201.306992,282.942474 206.136597,288.070007 205.591843,295.005035 
	C201.071579,289.144104 197.570908,288.197205 191.008011,291.249420 
	C188.606171,292.366394 186.331970,293.757874 183.302048,295.137848 
	C176.124405,299.444763 168.328705,301.696625 159.245758,302.026398 
	C153.290375,300.011688 147.793732,297.299927 143.839081,291.274963 
	C141.436539,285.215668 140.372589,278.609497 135.270233,273.702637 
	C133.743057,272.233978 132.978989,268.889465 133.392960,266.692169 
	C134.532928,260.641327 136.481842,254.742859 138.413483,247.676743 
	C146.444107,259.023407 147.516449,259.691559 155.758896,258.913818 
	C161.427994,256.811279 167.097107,254.708740 172.003342,252.889145 
	C170.930801,247.600601 170.092606,243.467667 169.196106,239.047195 
	C176.730423,239.244354 181.698257,249.058578 188.081940,242.412216 
	C187.335587,237.393890 186.739090,233.383148 186.576385,229.001175 
	C186.709518,228.648682 186.842667,228.296173 187.689743,227.999619 
	C189.720779,229.243942 191.751801,230.488266 194.243958,232.197800 
	C199.578964,236.035416 205.025040,236.614151 210.098495,233.539001 
	C209.482346,228.693024 208.954300,224.539978 208.426254,220.386932 
	C208.921600,220.244431 209.416946,220.101913 209.912292,219.959396 
	C212.862579,221.688400 215.812866,223.417404 219.252411,225.686478 
	C221.721558,226.519592 224.190689,227.352692 226.659836,228.185806 
	C227.043304,227.675278 227.426758,227.164749 227.810226,226.654205 
	C226.053055,224.014160 224.295898,221.374115 222.131790,218.152542 
	C220.111038,216.766464 218.235306,215.066223 216.042038,214.053925 
	C209.760544,211.154694 206.110229,212.457184 202.537552,218.353790 
	C200.770462,221.270325 198.860168,224.100067 196.764038,226.304123 
	C195.894089,224.352463 194.822342,222.462769 194.199707,220.435165 
	C193.168015,217.075424 191.272385,215.883377 187.418900,217.267502 
	C187.130829,217.467102 186.842743,217.666718 185.869278,217.890488 
	C178.223007,221.053497 180.040939,228.616806 178.501511,235.105759 
	C176.702164,232.891891 175.356430,231.224533 173.998322,229.567307 
	C169.815338,224.463089 167.312256,224.212570 162.655502,228.999863 
	C160.868607,230.836807 159.162003,233.203720 158.538757,235.618240 
	C157.521225,239.560165 157.421753,243.739059 156.228027,247.727386 
	C152.484894,246.077316 148.792725,244.297592 144.988968,242.801697 
	C133.936691,238.455185 126.669220,243.126160 125.642334,255.328812 
	C125.642334,255.328812 125.627968,255.760727 125.804832,255.756577 
	C125.804832,255.756577 125.721825,255.600342 125.157448,255.420059 
	C120.196587,250.116577 115.235725,244.813080 110.148438,238.797638 
	C107.425262,232.785614 106.220406,226.628265 108.123123,220.095291 
	C110.499031,211.937622 115.462608,207.998398 123.425041,208.872696 
	C128.540451,213.665634 133.780365,213.498810 139.884811,209.176910 
	C146.972534,205.592255 154.060257,202.007614 161.712540,198.019287 
	C168.866104,191.024750 175.101852,183.447617 178.276581,173.697433 
	C181.606873,163.469406 188.313248,156.356369 198.381912,152.287796 
	C200.052383,151.612808 202.045822,149.584457 202.314133,147.926483 
	C204.892487,131.994659 213.780548,121.073341 228.887482,114.158951 
	C238.886520,110.317261 249.225357,108.606071 259.943787,108.950333 
	C263.023987,109.049263 266.121857,108.597015 270.055786,108.368248 
	C272.035828,108.221542 274.015900,108.074837 276.919525,108.060623 
	C284.302216,107.418869 291.684937,106.777115 299.850586,106.168739 
	C307.776642,104.777832 313.198364,100.594162 315.257324,92.532028 
	C315.340698,92.205566 316.552338,92.167244 317.160675,92.791374 
	C317.997009,98.607063 316.252625,103.622803 312.437714,107.991325 
	C306.667938,114.598396 299.356079,118.553162 290.045990,120.631111 
	C281.564392,122.078087 273.086700,124.685074 264.600342,124.713547 
	C250.082031,124.762268 239.621765,131.255783 230.457611,142.137222 
	C230.313492,142.436859 230.169373,142.736481 229.726318,143.158585 
M180.292618,185.774734 
	C175.873138,191.644592 171.453659,197.514450 166.960526,203.482132 
	C174.083801,203.130356 180.305801,200.634125 184.266830,193.879333 
	C187.187149,188.899261 187.189285,182.922409 184.334030,178.635544 
	C183.095383,180.852585 181.890656,183.008926 180.292618,185.774734 
z"/>
<path fill="#005E6D" opacity="1.000000" stroke="none" 
	d="
M317.989380,421.917938 
	C312.404022,423.700653 306.818665,425.483368 300.513916,427.060913 
	C299.590973,425.104370 298.656250,422.991272 299.312317,421.665192 
	C301.937042,416.359711 305.055817,411.298676 307.991821,406.147186 
	C310.482697,405.998871 312.973572,405.850555 315.464447,405.702240 
	C315.493225,405.383057 315.522034,405.063873 315.550812,404.744690 
	C312.499481,403.425842 309.448151,402.106964 306.174011,400.126282 
	C304.625977,395.777557 305.465759,392.511078 307.344818,389.137756 
	C310.112061,384.170044 312.443054,378.959320 314.959900,373.852112 
	C314.896362,373.486938 314.832825,373.121735 315.039429,372.258911 
	C316.596405,368.823578 317.894684,365.890808 319.167236,362.946930 
	C320.826019,359.109680 322.486328,355.272797 324.106873,351.419342 
	C327.082214,344.344269 330.029022,337.257202 332.987701,330.175110 
	C333.516571,329.980408 334.045471,329.785706 335.006592,329.134735 
	C339.091522,321.499847 342.783722,314.340973 346.382385,307.135345 
	C348.635681,302.623505 350.977692,298.134399 352.868866,293.468475 
	C355.575012,286.791840 357.562469,279.810486 360.483734,273.237885 
	C364.077209,265.152740 368.409424,257.399353 372.247620,249.418564 
	C375.675293,242.291428 378.766907,235.002396 382.211365,227.883789 
	C383.485657,225.250183 385.668732,223.046158 386.870972,220.389862 
	C389.992493,213.493286 392.761322,206.438034 395.742645,199.476837 
	C398.900269,192.104004 401.878387,184.637131 405.425110,177.453369 
	C408.440186,171.346390 410.111481,164.133926 417.146759,160.798264 
	C420.456177,168.227005 423.765625,175.655762 426.894470,183.748917 
	C424.456879,188.318832 421.956970,192.105988 419.986267,196.150970 
	C412.662354,211.183533 405.398376,226.247864 398.349548,241.410706 
	C395.218323,248.146301 392.826752,255.223053 389.779541,262.001129 
	C387.039398,268.096375 383.810577,273.970093 380.888916,279.985992 
	C376.402588,289.223602 371.962860,298.484131 367.561981,307.762756 
	C362.277100,318.905121 356.978424,330.042053 351.826599,341.246094 
	C347.408325,350.854889 343.276245,360.595245 338.860474,370.205200 
	C332.157471,384.792725 325.203857,399.266571 318.655640,413.922302 
	C317.626038,416.226685 318.171936,419.235077 317.989380,421.917938 
z"/>
<path fill="#005866" opacity="1.000000" stroke="none" 
	d="
M318.355591,421.901611 
	C318.171936,419.235077 317.626038,416.226685 318.655640,413.922302 
	C325.203857,399.266571 332.157471,384.792725 338.860474,370.205200 
	C343.276245,360.595245 347.408325,350.854889 351.826599,341.246094 
	C356.978424,330.042053 362.277100,318.905121 367.561981,307.762756 
	C371.962860,298.484131 376.402588,289.223602 380.888916,279.985992 
	C383.810577,273.970093 387.039398,268.096375 389.779541,262.001129 
	C392.826752,255.223053 395.218323,248.146301 398.349548,241.410706 
	C405.398376,226.247864 412.662354,211.183533 419.986267,196.150970 
	C421.956970,192.105988 424.456879,188.318832 426.920166,184.121017 
	C429.836334,193.916672 432.546234,204.004639 434.879883,214.538269 
	C432.941650,216.457336 430.832153,217.653946 429.920898,219.456345 
	C427.240417,224.758133 425.161621,230.360199 422.612915,235.733505 
	C419.279175,242.761658 415.578400,249.616989 412.298126,256.668854 
	C408.754547,264.286804 405.650482,272.109070 402.112823,279.729950 
	C394.382751,296.382111 386.443787,312.937286 378.693176,329.579987 
	C369.396545,349.542419 359.910065,369.425995 351.154388,389.624847 
	C348.567566,395.592499 343.661469,401.142487 345.216827,408.521027 
	C336.385132,412.975769 327.553467,417.430511 318.355591,421.901611 
z"/>
<path fill="#01B8C0" opacity="1.000000" stroke="none" 
	d="
M66.755959,279.122437 
	C62.778763,259.463287 63.616039,239.760742 66.466568,220.086853 
	C74.014709,167.990723 99.226067,126.417854 141.387360,95.049759 
	C144.823837,92.493004 148.529037,90.297462 152.751495,88.139374 
	C153.033035,90.349022 153.072449,92.537598 152.247742,94.328171 
	C146.355408,107.121529 140.206909,119.796768 134.298645,132.582932 
	C129.112076,143.807251 124.309708,155.211121 119.019394,166.385010 
	C110.968254,183.390152 102.548096,200.220383 94.470825,217.213379 
	C90.124107,226.358032 86.181923,235.694550 82.024475,244.929764 
	C79.781952,249.911224 77.425331,254.841537 75.201347,259.831116 
	C72.343590,266.242554 69.567329,272.690308 66.755959,279.122437 
z"/>
<path fill="#00B2B9" opacity="1.000000" stroke="none" 
	d="
M66.729950,279.545471 
	C69.567329,272.690308 72.343590,266.242554 75.201347,259.831116 
	C77.425331,254.841537 79.781952,249.911224 82.024475,244.929764 
	C86.181923,235.694550 90.124107,226.358032 94.470825,217.213379 
	C102.548096,200.220383 110.968254,183.390152 119.019394,166.385010 
	C124.309708,155.211121 129.112076,143.807251 134.298645,132.582932 
	C140.206909,119.796768 146.355408,107.121529 152.247742,94.328171 
	C153.072449,92.537598 153.033035,90.349022 153.099655,88.115250 
	C162.296600,82.969765 171.787506,78.053719 181.636978,73.504791 
	C181.637360,75.112297 181.439072,76.428345 180.893951,77.580269 
	C178.206467,83.259293 175.306351,88.839890 172.704468,94.556793 
	C166.735260,107.672440 161.043564,120.915871 154.968384,133.981491 
	C146.086014,153.084396 136.777496,171.991196 128.067963,191.171097 
	C125.599373,196.607361 124.583260,202.703201 122.901016,208.496552 
	C115.462608,207.998398 110.499031,211.937622 108.123123,220.095291 
	C106.220406,226.628265 107.425262,232.785614 109.988190,239.488861 
	C108.204758,241.348618 105.852737,242.160339 105.077431,243.743958 
	C100.284294,253.534363 95.854584,263.502472 91.287476,273.403809 
	C86.573936,283.622681 81.897003,293.859344 77.046616,304.013000 
	C76.442719,305.277222 74.875450,306.081238 73.754585,307.098480 
	C71.404366,298.055145 69.054153,289.011810 66.729950,279.545471 
z"/>
<path fill="#005260" opacity="1.000000" stroke="none" 
	d="
M345.566162,408.416504 
	C343.661469,401.142487 348.567566,395.592499 351.154388,389.624847 
	C359.910065,369.425995 369.396545,349.542419 378.693176,329.579987 
	C386.443787,312.937286 394.382751,296.382111 402.112823,279.729950 
	C405.650482,272.109070 408.754547,264.286804 412.298126,256.668854 
	C415.578400,249.616989 419.279175,242.761658 422.612915,235.733505 
	C425.161621,230.360199 427.240417,224.758133 429.920898,219.456345 
	C430.832153,217.653946 432.941650,216.457336 434.908783,214.966949 
	C436.238922,227.988617 437.163910,241.027283 437.677307,254.541138 
	C436.217407,255.923325 434.742981,256.622986 434.185486,257.768768 
	C427.312897,271.893799 420.588470,286.090820 413.793304,300.253723 
	C411.355988,305.333710 408.650574,310.292603 406.391663,315.448792 
	C403.426880,322.216400 401.084015,329.266632 397.934265,335.940796 
	C392.342743,347.788727 386.119019,359.340698 380.630463,371.233673 
	C378.467407,375.920715 377.565765,381.189880 376.089722,386.193970 
	C366.031616,393.566620 355.973541,400.939301 345.566162,408.416504 
z"/>
<path fill="#006572" opacity="1.000000" stroke="none" 
	d="
M417.074249,160.461029 
	C410.111481,164.133926 408.440186,171.346390 405.425110,177.453369 
	C401.878387,184.637131 398.900269,192.104004 395.742645,199.476837 
	C392.761322,206.438034 389.992493,213.493286 386.870972,220.389862 
	C385.668732,223.046158 383.485657,225.250183 382.211365,227.883789 
	C378.766907,235.002396 375.675293,242.291428 372.247620,249.418564 
	C368.409424,257.399353 364.077209,265.152740 360.483734,273.237885 
	C357.562469,279.810486 355.575012,286.791840 352.868866,293.468475 
	C350.977692,298.134399 348.635681,302.623505 346.382385,307.135345 
	C342.783722,314.340973 339.091522,321.499847 335.143585,328.886475 
	C320.388916,320.803131 312.852631,299.582062 319.008911,284.531189 
	C323.925690,285.685669 328.812317,287.599548 333.760193,287.773773 
	C338.465851,287.939453 343.235504,286.287201 347.977020,285.434235 
	C348.063934,284.812134 348.150848,284.190033 348.237793,283.567932 
	C347.256836,282.654907 346.275909,281.741852 345.128174,280.108459 
	C345.905823,275.738647 346.339386,271.854645 347.887451,268.482300 
	C353.222015,256.861542 359.149811,245.512650 364.464905,233.883484 
	C369.959869,221.860840 374.812836,209.545090 380.291412,197.514572 
	C387.767639,181.097427 395.526917,164.808258 403.293823,148.525726 
	C404.149200,146.732513 405.849457,145.342285 407.157837,143.765152 
	C410.439148,149.218033 413.720428,154.670929 417.074249,160.461029 
z"/>
<path fill="#01A2AB" opacity="1.000000" stroke="none" 
	d="
M125.887115,254.972672 
	C126.669220,243.126160 133.936691,238.455185 144.988968,242.801697 
	C148.792725,244.297592 152.484894,246.077316 156.599167,248.187149 
	C156.577408,250.489227 156.160629,252.326859 155.798996,254.175278 
	C155.495392,255.727173 155.256058,257.291626 154.988266,258.850525 
	C147.516449,259.691559 146.444107,259.023407 138.413483,247.676743 
	C136.481842,254.742859 134.532928,260.641327 133.392960,266.692169 
	C132.978989,268.889465 133.743057,272.233978 135.270233,273.702637 
	C140.372589,278.609497 141.436539,285.215668 143.722229,291.903992 
	C141.409958,295.496552 139.087860,298.377075 137.070755,301.457336 
	C136.008240,303.079926 135.552704,305.087280 134.695618,306.859192 
	C129.600327,317.392853 124.413879,327.882721 119.364525,338.438232 
	C115.138412,347.272675 111.057945,356.176788 106.912994,365.050079 
	C100.921913,356.741882 94.930832,348.433655 89.024414,339.425781 
	C91.208542,333.210419 92.850731,327.462830 95.505096,322.228577 
	C100.627144,312.128174 106.324020,302.319458 111.770576,292.383209 
	C112.167572,291.658966 112.535789,290.904785 112.801300,290.125000 
	C114.338974,285.609039 115.783752,281.060181 117.407501,276.575867 
	C117.716286,275.723053 118.839058,275.198059 119.319916,274.367615 
	C120.309578,272.658356 121.213753,270.884216 121.971764,269.061340 
	C122.529289,267.720612 122.360100,265.520844 123.271820,264.979950 
	C127.379181,262.543060 126.849380,259.222046 125.721825,255.600342 
	C125.721825,255.600342 125.804832,255.756577 125.929306,255.769547 
	C126.167564,255.707153 126.281357,255.631790 126.395142,255.556427 
	C126.225800,255.361832 126.056458,255.167252 125.887115,254.972672 
z"/>
<path fill="#01A1AB" opacity="1.000000" stroke="none" 
	d="
M228.131027,114.255875 
	C213.780548,121.073341 204.892487,131.994659 202.314133,147.926483 
	C202.045822,149.584457 200.052383,151.612808 198.381912,152.287796 
	C188.313248,156.356369 181.606873,163.469406 178.276581,173.697433 
	C175.101852,183.447617 168.866104,191.024750 161.389938,197.771973 
	C161.159973,195.877487 160.798981,194.032364 161.417633,192.614761 
	C166.003998,182.105270 170.115662,171.302002 175.739639,161.362320 
	C179.510345,154.698044 182.317719,147.790405 185.318634,140.849243 
	C190.204956,129.547058 195.611298,118.468910 200.840210,107.315926 
	C203.494110,101.655273 206.248367,96.041718 208.938858,90.398109 
	C209.759338,88.677048 210.556808,86.942947 211.299240,85.187096 
	C214.544037,77.513062 217.764694,69.828835 220.994125,62.148308 
	C231.795837,61.255680 242.597565,60.363052 253.549530,59.921555 
	C252.018051,61.831394 249.694244,62.963581 248.759308,64.802063 
	C242.896164,76.331398 236.926208,87.842323 231.901169,99.743408 
	C230.017685,104.204163 225.412933,108.437843 228.131027,114.255875 
z"/>
<path fill="#00A7B0" opacity="1.000000" stroke="none" 
	d="
M220.602509,62.115131 
	C217.764694,69.828835 214.544037,77.513062 211.299240,85.187096 
	C210.556808,86.942947 209.759338,88.677048 208.938858,90.398109 
	C206.248367,96.041718 203.494110,101.655273 200.840210,107.315926 
	C195.611298,118.468910 190.204956,129.547058 185.318634,140.849243 
	C182.317719,147.790405 179.510345,154.698044 175.739639,161.362320 
	C170.115662,171.302002 166.003998,182.105270 161.417633,192.614761 
	C160.798981,194.032364 161.159973,195.877487 161.107666,197.973801 
	C154.060257,202.007614 146.972534,205.592255 139.346207,208.853271 
	C138.824203,206.465027 138.180588,204.095627 138.969223,202.387466 
	C142.829391,194.026428 147.321945,185.955002 151.116516,177.566589 
	C156.217484,166.290161 160.792038,154.776855 165.767288,143.441940 
	C169.395523,135.175919 173.164581,126.964432 177.139984,118.860664 
	C179.827515,113.382217 183.375778,108.307312 185.840652,102.742561 
	C189.982727,93.391251 193.342667,83.692619 197.514771,74.355988 
	C198.926590,71.196510 201.801300,68.690735 204.007477,65.886215 
	C209.408615,64.618134 214.809769,63.350044 220.602509,62.115131 
z"/>
<path fill="#016875" opacity="1.000000" stroke="none" 
	d="
M407.067261,143.441376 
	C405.849457,145.342285 404.149200,146.732513 403.293823,148.525726 
	C395.526917,164.808258 387.767639,181.097427 380.291412,197.514572 
	C374.812836,209.545090 369.959869,221.860840 364.464905,233.883484 
	C359.149811,245.512650 353.222015,256.861542 347.887451,268.482300 
	C346.339386,271.854645 345.905823,275.738647 344.931274,279.837280 
	C336.812195,275.843445 331.683563,269.001129 328.157227,259.860535 
	C336.877045,261.125214 344.989075,261.863556 351.410034,254.076706 
	C342.263275,247.946426 334.598114,241.170029 337.223572,229.417465 
	C341.539825,227.341797 345.490387,225.441986 350.012756,223.242004 
	C352.340240,221.273987 354.788879,219.926392 355.732849,217.883484 
	C360.063629,208.511063 363.796082,198.862976 368.092896,189.473831 
	C371.305756,182.453201 375.359650,175.812622 378.478485,168.755096 
	C381.975739,160.841263 384.401611,152.436951 388.141296,144.653351 
	C390.538513,139.664062 391.814911,133.452271 397.984222,131.029785 
	C400.981720,135.059052 403.979187,139.088318 407.067261,143.441376 
z"/>
<path fill="#00ACB4" opacity="1.000000" stroke="none" 
	d="
M203.609009,65.884979 
	C201.801300,68.690735 198.926590,71.196510 197.514771,74.355988 
	C193.342667,83.692619 189.982727,93.391251 185.840652,102.742561 
	C183.375778,108.307312 179.827515,113.382217 177.139984,118.860664 
	C173.164581,126.964432 169.395523,135.175919 165.767288,143.441940 
	C160.792038,154.776855 156.217484,166.290161 151.116516,177.566589 
	C147.321945,185.955002 142.829391,194.026428 138.969223,202.387466 
	C138.180588,204.095627 138.824203,206.465027 138.964966,208.898193 
	C133.780365,213.498810 128.540451,213.665634 123.163025,208.684631 
	C124.583260,202.703201 125.599373,196.607361 128.067963,191.171097 
	C136.777496,171.991196 146.086014,153.084396 154.968384,133.981491 
	C161.043564,120.915871 166.735260,107.672440 172.704468,94.556793 
	C175.306351,88.839890 178.206467,83.259293 180.893951,77.580269 
	C181.439072,76.428345 181.637360,75.112297 181.996124,73.488548 
	C189.067993,70.698036 196.139282,68.290886 203.609009,65.884979 
z"/>
<path fill="#00AAB2" opacity="1.000000" stroke="none" 
	d="
M125.439636,255.510193 
	C126.849380,259.222046 127.379181,262.543060 123.271820,264.979950 
	C122.360100,265.520844 122.529289,267.720612 121.971764,269.061340 
	C121.213753,270.884216 120.309578,272.658356 119.319916,274.367615 
	C118.839058,275.198059 117.716286,275.723053 117.407501,276.575867 
	C115.783752,281.060181 114.338974,285.609039 112.801300,290.125000 
	C112.535789,290.904785 112.167572,291.658966 111.770576,292.383209 
	C106.324020,302.319458 100.627144,312.128174 95.505096,322.228577 
	C92.850731,327.462830 91.208542,333.210419 88.965843,339.096100 
	C83.818695,328.931488 78.814774,318.396820 73.782715,307.480347 
	C74.875450,306.081238 76.442719,305.277222 77.046616,304.013000 
	C81.897003,293.859344 86.573936,283.622681 91.287476,273.403809 
	C95.854584,263.502472 100.284294,253.534363 105.077431,243.743958 
	C105.852737,242.160339 108.204758,241.348618 110.051407,239.844833 
	C115.235725,244.813080 120.196587,250.116577 125.439636,255.510193 
z"/>
<path fill="#0199A3" opacity="1.000000" stroke="none" 
	d="
M107.028702,365.366638 
	C111.057945,356.176788 115.138412,347.272675 119.364525,338.438232 
	C124.413879,327.882721 129.600327,317.392853 134.695618,306.859192 
	C135.552704,305.087280 136.008240,303.079926 137.070755,301.457336 
	C139.087860,298.377075 141.409958,295.496552 143.804337,292.264252 
	C147.793732,297.299927 153.290375,300.011688 159.613113,302.464661 
	C154.693466,315.366150 149.542572,327.889557 144.067200,340.269501 
	C140.907440,347.413788 137.152267,354.292419 133.795822,361.352753 
	C130.359604,368.580872 127.083023,375.884949 123.736557,383.155762 
	C118.205841,377.331604 112.675125,371.507416 107.028702,365.366638 
z"/>
<path fill="#014C5A" opacity="1.000000" stroke="none" 
	d="
M376.382385,386.022308 
	C377.565765,381.189880 378.467407,375.920715 380.630463,371.233673 
	C386.119019,359.340698 392.342743,347.788727 397.934265,335.940796 
	C401.084015,329.266632 403.426880,322.216400 406.391663,315.448792 
	C408.650574,310.292603 411.355988,305.333710 413.793304,300.253723 
	C420.588470,286.090820 427.312897,271.893799 434.185486,257.768768 
	C434.742981,256.622986 436.217407,255.923325 437.634216,255.008270 
	C437.449585,285.085480 429.379181,313.248993 414.084473,338.910004 
	C405.888367,352.661194 395.245361,364.973846 385.443604,377.733673 
	C383.051819,380.847290 379.625641,383.166321 376.382385,386.022308 
z"/>
<path fill="#01929C" opacity="1.000000" stroke="none" 
	d="
M123.892944,383.456299 
	C127.083023,375.884949 130.359604,368.580872 133.795822,361.352753 
	C137.152267,354.292419 140.907440,347.413788 144.067200,340.269501 
	C149.542572,327.889557 154.693466,315.366150 159.986069,302.525696 
	C168.328705,301.696625 176.124405,299.444763 183.660156,295.480286 
	C184.222626,298.085602 185.274948,300.718140 184.478561,302.544647 
	C181.647141,309.038483 178.040634,315.189148 175.012344,321.604126 
	C172.857300,326.169312 169.322296,330.629242 172.409882,336.186279 
	C158.999237,346.477936 147.929337,358.695648 141.478836,374.555481 
	C139.053574,380.518524 137.143280,386.691040 134.700455,393.611603 
	C130.802216,390.004822 127.425766,386.880829 123.892944,383.456299 
z"/>
<path fill="#006D7A" opacity="1.000000" stroke="none" 
	d="
M397.865662,130.715332 
	C391.814911,133.452271 390.538513,139.664062 388.141296,144.653351 
	C384.401611,152.436951 381.975739,160.841263 378.478485,168.755096 
	C375.359650,175.812622 371.305756,182.453201 368.092896,189.473831 
	C363.796082,198.862976 360.063629,208.511063 355.732849,217.883484 
	C354.788879,219.926392 352.340240,221.273987 350.217560,222.980011 
	C347.033386,220.834412 344.216248,218.650635 341.213104,215.795944 
	C341.999390,211.465225 341.981323,207.029480 344.127899,204.289764 
	C350.809753,195.761658 352.123352,185.008667 357.066803,175.795868 
	C361.896210,166.795593 365.899933,157.352814 370.283691,148.112625 
	C373.817596,140.663696 377.737549,133.370850 380.788300,125.730087 
	C382.555267,121.304680 384.447144,118.917015 389.349884,120.887589 
	C392.148956,124.058693 394.948029,127.229797 397.865662,130.715332 
z"/>
<path fill="#017C88" opacity="1.000000" stroke="none" 
	d="
M331.999268,160.982666 
	C326.952820,160.017334 321.906403,159.052002 316.376526,157.704376 
	C314.679047,156.878830 313.465027,156.435562 311.633698,155.766907 
	C312.704285,153.569366 313.553497,151.304382 314.826996,149.310440 
	C318.558411,143.468216 319.147552,136.000977 324.923309,131.052353 
	C326.355164,129.825562 330.677856,126.200264 325.897705,122.955139 
	C325.963745,122.205605 326.029785,121.456070 326.057587,119.965263 
	C331.486237,113.619286 334.563690,106.610893 337.170288,99.442070 
	C339.114258,94.095695 340.778259,88.766129 346.252563,85.870613 
	C352.411652,90.018845 358.570709,94.167084 364.651855,98.894485 
	C360.793915,99.600243 358.895996,101.803116 357.361938,105.110947 
	C350.678925,119.521019 343.689972,133.788956 336.971558,148.182953 
	C335.039917,152.321533 333.641937,156.709213 331.999268,160.982666 
z"/>
<path fill="#017581" opacity="1.000000" stroke="none" 
	d="
M332.260681,161.198547 
	C333.641937,156.709213 335.039917,152.321533 336.971558,148.182953 
	C343.689972,133.788956 350.678925,119.521019 357.361938,105.110947 
	C358.895996,101.803116 360.793915,99.600243 364.817200,99.188873 
	C369.727509,102.686684 374.394531,106.469269 378.848663,110.592117 
	C376.876312,112.712959 374.504150,114.191826 373.455078,116.322227 
	C365.640686,132.191498 358.031494,148.163086 350.501465,164.170105 
	C348.968719,167.428360 348.043701,170.972519 346.838531,174.384888 
	C342.066376,170.061401 337.294250,165.737900 332.260681,161.198547 
z"/>
<path fill="#01717D" opacity="1.000000" stroke="none" 
	d="
M346.891052,174.725952 
	C348.043701,170.972519 348.968719,167.428360 350.501465,164.170105 
	C358.031494,148.163086 365.640686,132.191498 373.455078,116.322227 
	C374.504150,114.191826 376.876312,112.712959 379.038361,110.881271 
	C382.648560,113.972260 385.856140,117.114372 389.206818,120.572037 
	C384.447144,118.917015 382.555267,121.304680 380.788300,125.730087 
	C377.737549,133.370850 373.817596,140.663696 370.283691,148.112625 
	C365.899933,157.352814 361.896210,166.795593 357.066803,175.795868 
	C352.123352,185.008667 350.809753,195.761658 344.127899,204.289764 
	C341.981323,207.029480 341.999390,211.465225 341.026123,215.521393 
	C332.769592,210.071198 329.450256,201.271790 327.205872,192.028534 
	C326.057770,187.300064 334.507812,181.417435 340.941254,182.345093 
	C343.847961,182.764236 346.660889,183.833527 350.902069,184.983627 
	C349.379761,181.170044 348.161682,178.118530 346.891052,174.725952 
z"/>
<path fill="#018C96" opacity="1.000000" stroke="none" 
	d="
M199.978363,317.931580 
	C199.536118,318.298889 199.093872,318.666199 198.115479,318.787903 
	C196.052887,318.361542 194.526443,318.180756 193.037842,317.649841 
	C195.175385,313.321777 196.821335,308.996613 199.516876,305.474792 
	C201.711548,302.607391 202.333344,300.152100 201.444107,296.999023 
	C202.536407,296.999359 203.185043,297.005096 203.833527,296.998718 
	C209.624985,296.941589 210.209793,296.037292 207.867920,290.739777 
	C207.606171,290.147644 207.290604,289.579346 207.040466,288.642395 
	C208.387390,284.576691 209.693817,280.868652 211.000244,277.160583 
	C213.084854,278.086761 215.169464,279.012939 217.859497,280.152832 
	C218.979675,281.128845 219.494431,281.891144 220.009186,282.653442 
	C220.338104,282.396423 220.667023,282.139404 220.995941,281.882355 
	C220.080063,280.918854 219.164200,279.955322 218.248322,278.991821 
	C215.784027,272.200623 209.727005,271.587006 203.954041,271.198059 
	C197.531128,270.765320 191.056580,271.098938 184.474594,271.098938 
	C197.953278,259.601074 210.579117,245.975906 230.802292,246.001572 
	C233.266281,246.004684 235.729523,246.590790 238.584595,247.414520 
	C236.932159,252.191010 234.842346,256.438568 232.860092,260.735687 
	C231.497482,263.689575 230.419724,266.781036 228.951904,269.677887 
	C228.107208,271.344971 226.623734,272.676544 225.641205,274.289185 
	C224.762436,275.731506 224.043930,277.308014 223.509460,278.910278 
	C223.175629,279.911072 223.672531,281.279480 223.179337,282.121216 
	C220.887634,286.032440 217.225266,289.546265 216.246323,293.717010 
	C215.056473,298.786438 212.724762,302.883026 209.681061,307.143005 
	C206.303070,310.184631 203.209991,313.056274 200.216476,316.028168 
	C199.859268,316.382782 200.044540,317.283813 199.978363,317.931580 
z"/>
<path fill="#0199A3" opacity="1.000000" stroke="none" 
	d="
M228.509247,114.207413 
	C225.412933,108.437843 230.017685,104.204163 231.901169,99.743408 
	C236.926208,87.842323 242.896164,76.331398 248.759308,64.802063 
	C249.694244,62.963581 252.018051,61.831394 253.909485,60.078262 
	C260.146423,60.115273 266.173645,60.446701 272.599609,61.293549 
	C272.576202,63.390064 272.385437,65.081146 271.694672,66.534607 
	C266.800476,76.832893 261.749634,87.056862 256.876068,97.364731 
	C255.577118,100.112053 254.721161,103.068817 253.265472,106.999718 
	C256.881104,106.999718 259.321564,106.818069 261.722137,107.049622 
	C264.238586,107.292343 266.716736,107.931564 269.211639,108.397491 
	C266.121857,108.597015 263.023987,109.049263 259.943787,108.950333 
	C249.225357,108.606071 238.886520,110.317261 228.509247,114.207413 
z"/>
<path fill="#016673" opacity="1.000000" stroke="none" 
	d="
M332.565247,330.090698 
	C330.029022,337.257202 327.082214,344.344269 324.106873,351.419342 
	C322.486328,355.272797 320.826019,359.109680 319.167236,362.946930 
	C317.894684,365.890808 316.596405,368.823578 315.003357,371.983093 
	C305.607819,363.678345 301.128510,352.707001 300.441620,340.727112 
	C299.851013,330.425934 301.350861,320.004883 302.925323,309.313904 
	C309.197662,321.815613 318.597168,328.853485 332.565247,330.090698 
z"/>
<path fill="#018490" opacity="1.000000" stroke="none" 
	d="
M209.995987,307.003235 
	C212.724762,302.883026 215.056473,298.786438 216.246323,293.717010 
	C217.225266,289.546265 220.887634,286.032440 223.179337,282.121216 
	C223.672531,281.279480 223.175629,279.911072 223.509460,278.910278 
	C224.043930,277.308014 224.762436,275.731506 225.641205,274.289185 
	C226.623734,272.676544 228.107208,271.344971 228.951904,269.677887 
	C230.419724,266.781036 231.497482,263.689575 232.860092,260.735687 
	C234.842346,256.438568 236.932159,252.191010 238.981964,247.553955 
	C251.165451,250.918396 256.768646,262.729767 250.323532,274.051147 
	C246.050858,281.556458 239.761200,288.064331 233.667297,294.331085 
	C229.308487,298.813538 223.776993,302.155670 218.225647,305.816650 
	C215.120361,306.085541 212.558167,306.544373 209.995987,307.003235 
z"/>
<path fill="#00939D" opacity="1.000000" stroke="none" 
	d="
M269.633728,108.382874 
	C266.716736,107.931564 264.238586,107.292343 261.722137,107.049622 
	C259.321564,106.818069 256.881104,106.999718 253.265472,106.999718 
	C254.721161,103.068817 255.577118,100.112053 256.876068,97.364731 
	C261.749634,87.056862 266.800476,76.832893 271.694672,66.534607 
	C272.385437,65.081146 272.576202,63.390064 272.998596,61.415924 
	C279.742645,62.291439 286.486450,63.559990 293.583130,65.221855 
	C288.597015,77.345390 283.202148,89.050781 277.968536,100.827820 
	C276.981781,103.048286 276.636993,105.554039 275.995941,107.928139 
	C274.015900,108.074837 272.035828,108.221542 269.633728,108.382874 
z"/>
<path fill="#018D97" opacity="1.000000" stroke="none" 
	d="
M276.457733,107.994385 
	C276.636993,105.554039 276.981781,103.048286 277.968536,100.827820 
	C283.202148,89.050781 288.597015,77.345390 293.973907,65.247528 
	C300.794067,66.795288 307.576294,68.710686 314.623169,71.168915 
	C313.086060,73.819595 310.879547,75.702271 309.558502,78.077438 
	C305.584808,85.221962 301.761505,92.468781 298.345123,99.890015 
	C297.596436,101.516258 298.776062,104.030212 299.067627,106.135361 
	C291.684937,106.777115 284.302216,107.418869 276.457733,107.994385 
z"/>
<path fill="#029AA4" opacity="1.000000" stroke="none" 
	d="
M155.373581,258.882172 
	C155.256058,257.291626 155.495392,255.727173 155.798996,254.175278 
	C156.160629,252.326859 156.577408,250.489227 156.952637,248.232452 
	C157.421753,243.739059 157.521225,239.560165 158.538757,235.618240 
	C159.162003,233.203720 160.868607,230.836807 162.655502,228.999863 
	C167.312256,224.212570 169.815338,224.463089 173.998322,229.567307 
	C175.356430,231.224533 176.702164,232.891891 178.501511,235.105759 
	C180.040939,228.616806 178.223007,221.053497 186.478745,217.867630 
	C187.375977,217.656387 187.663727,217.467987 187.951477,217.279587 
	C191.272385,215.883377 193.168015,217.075424 194.199707,220.435165 
	C194.822342,222.462769 195.894089,224.352463 196.730713,226.951767 
	C195.725876,228.977142 194.754364,230.354874 193.782837,231.732590 
	C191.751801,230.488266 189.720779,229.243942 187.138367,227.843719 
	C186.438858,228.249329 186.290710,228.810867 186.142578,229.372406 
	C186.739090,233.383148 187.335587,237.393890 188.081940,242.412216 
	C181.698257,249.058578 176.730423,239.244354 169.196106,239.047195 
	C170.092606,243.467667 170.930801,247.600601 172.003342,252.889145 
	C167.097107,254.708740 161.427994,256.811279 155.373581,258.882172 
z"/>
<path fill="#01818E" opacity="1.000000" stroke="none" 
	d="
M346.002808,85.617622 
	C340.778259,88.766129 339.114258,94.095695 337.170288,99.442070 
	C334.563690,106.610893 331.486237,113.619286 326.015198,119.590668 
	C324.244171,121.245583 322.477295,122.533821 319.987305,123.926094 
	C316.751984,124.389648 314.239777,124.749161 311.727600,125.108673 
	C311.351318,124.678650 310.975067,124.248619 310.598785,123.818588 
	C317.107849,108.256203 322.591278,92.153809 335.109589,79.755386 
	C338.657410,81.625137 342.205200,83.494888 346.002808,85.617622 
z"/>
<path fill="#016A76" opacity="1.000000" stroke="none" 
	d="
M292.035217,390.770905 
	C278.991638,378.347809 275.318237,362.634888 276.525360,345.415100 
	C276.890106,340.212128 278.407654,335.089935 280.098114,329.835052 
	C280.887085,346.237457 288.642212,358.317627 301.685364,367.893005 
	C294.115112,374.015472 291.642151,381.774414 292.035217,390.770905 
z"/>
<path fill="#038E98" opacity="1.000000" stroke="none" 
	d="
M207.000000,289.000000 
	C207.290604,289.579346 207.606171,290.147644 207.867920,290.739777 
	C210.209793,296.037292 209.624985,296.941589 203.833527,296.998718 
	C203.185043,297.005096 202.536407,296.999359 201.407440,296.649231 
	C200.324127,293.567596 198.574203,292.199249 196.474503,294.380951 
	C193.079330,297.908783 189.817566,301.718994 187.302628,305.893738 
	C185.081390,309.580963 184.591919,314.362701 182.190781,317.877563 
	C179.058487,322.462708 179.927948,325.396057 184.094818,328.180359 
	C180.364044,330.699799 176.633270,333.219238 172.656189,335.962463 
	C169.322296,330.629242 172.857300,326.169312 175.012344,321.604126 
	C178.040634,315.189148 181.647141,309.038483 184.478561,302.544647 
	C185.274948,300.718140 184.222626,298.085602 184.008911,295.423462 
	C186.331970,293.757874 188.606171,292.366394 191.008011,291.249420 
	C197.570908,288.197205 201.071579,289.144104 205.591843,295.005035 
	C206.136597,288.070007 201.306992,282.942474 193.475388,283.160095 
	C187.878784,283.315643 182.329514,284.766235 176.730347,285.373901 
	C172.617599,285.820251 168.445267,286.115295 164.325378,285.922974 
	C162.397705,285.833008 160.531235,284.432098 158.637024,283.625336 
	C158.789322,283.079376 158.941635,282.533417 159.093933,281.987488 
	C162.170715,281.786560 165.346771,280.999207 168.304825,281.499878 
	C175.770554,282.763519 182.781677,281.381409 189.905090,279.397003 
	C195.408066,277.863983 201.118576,277.075989 206.896591,276.435577 
	C205.585938,278.685303 202.789017,280.595428 202.956787,282.194427 
	C203.206894,284.578125 205.548370,286.742371 207.000000,289.000000 
z"/>
<path fill="#016674" opacity="1.000000" stroke="none" 
	d="
M288.180511,430.293640 
	C282.912170,428.904663 277.557068,427.770599 272.411865,426.019653 
	C269.820679,425.137848 267.610474,423.136505 265.412842,421.271240 
	C266.429138,419.198639 267.242920,417.487366 268.095215,415.795471 
	C271.050934,409.927948 274.020050,404.067169 276.984070,398.203796 
	C282.394287,400.101532 287.804474,401.999298 293.601929,404.308929 
	C291.450500,410.885345 289.179108,417.179901 286.268646,423.163605 
	C284.633636,426.525024 285.075165,428.572937 288.180511,430.293640 
z"/>
<path fill="#016F7B" opacity="1.000000" stroke="none" 
	d="
M254.990601,411.135132 
	C242.724396,396.708984 241.732452,369.963959 253.729263,354.850098 
	C253.588501,369.709961 256.950439,382.462128 267.762299,392.729187 
	C265.628601,393.860413 263.513794,394.259491 261.509552,394.970398 
	C260.089355,395.474121 257.903381,396.160889 257.638611,397.177399 
	C256.447571,401.749634 255.820847,406.468903 254.990601,411.135132 
z"/>
<path fill="#02858F" opacity="1.000000" stroke="none" 
	d="
M334.889465,79.513474 
	C322.591278,92.153809 317.107849,108.256203 310.598785,123.818588 
	C310.975067,124.248619 311.351318,124.678650 311.727600,125.108673 
	C314.239777,124.749161 316.751984,124.389648 319.676941,124.031097 
	C315.279907,125.994202 310.614471,128.576263 305.618683,129.739639 
	C300.869141,130.845673 295.774231,130.468750 290.395172,130.290192 
	C290.266968,126.725975 290.574738,123.615417 290.882507,120.504852 
	C299.356079,118.553162 306.667938,114.598396 312.437714,107.991325 
	C316.252625,103.622803 317.997009,98.607063 317.557098,92.380325 
	C320.186371,88.465088 323.949738,85.079407 324.232788,81.424225 
	C324.531372,77.567886 325.680542,77.031181 328.585999,76.868835 
	C330.613770,77.669746 332.641571,78.470657 334.889465,79.513474 
z"/>
<path fill="#028691" opacity="1.000000" stroke="none" 
	d="
M295.462677,159.330170 
	C293.159180,158.436005 290.885315,157.454376 288.547089,156.662857 
	C278.421143,153.235123 268.276398,149.862915 257.632874,146.301346 
	C261.275940,144.975952 265.296509,142.675110 269.538940,142.143021 
	C278.561523,141.011429 287.701691,140.830780 296.788452,140.187134 
	C298.928589,140.035538 301.048187,139.593689 303.575714,139.643188 
	C301.137024,146.444046 298.299866,152.887100 295.462677,159.330170 
z"/>
<path fill="#018792" opacity="1.000000" stroke="none" 
	d="
M328.353149,76.566139 
	C325.680542,77.031181 324.531372,77.567886 324.232788,81.424225 
	C323.949738,85.079407 320.186371,88.465088 317.595886,91.981972 
	C316.552338,92.167244 315.340698,92.205566 315.257324,92.532028 
	C313.198364,100.594162 307.776642,104.777832 299.459106,106.152054 
	C298.776062,104.030212 297.596436,101.516258 298.345123,99.890015 
	C301.761505,92.468781 305.584808,85.221962 309.558502,78.077438 
	C310.879547,75.702271 313.086060,73.819595 314.941833,71.378708 
	C319.370697,72.784920 323.745483,74.524178 328.353149,76.566139 
z"/>
<path fill="#016573" opacity="1.000000" stroke="none" 
	d="
M292.196930,391.074341 
	C291.642151,381.774414 294.115112,374.015472 301.873474,368.166077 
	C306.142975,369.794922 310.211670,371.709839 314.620117,373.738434 
	C312.443054,378.959320 310.112061,384.170044 307.344818,389.137756 
	C305.465759,392.511078 304.625977,395.777557 305.926880,399.886017 
	C301.387939,397.330994 296.873291,394.354370 292.196930,391.074341 
z"/>
<path fill="#01818D" opacity="1.000000" stroke="none" 
	d="
M295.755310,159.602753 
	C298.299866,152.887100 301.137024,146.444046 303.981781,139.639618 
	C312.739502,136.159698 320.703613,131.980881 325.651672,123.178421 
	C330.677856,126.200264 326.355164,129.825562 324.923309,131.052353 
	C319.147552,136.000977 318.558411,143.468216 314.826996,149.310440 
	C313.553497,151.304382 312.704285,153.569366 311.633698,155.766907 
	C313.465027,156.435562 314.679047,156.878830 315.944885,157.642487 
	C311.706909,158.914917 307.452637,160.133667 303.113007,160.710022 
	C300.835114,161.012543 298.407806,160.189880 295.755310,159.602753 
z"/>
<path fill="#038E98" opacity="1.000000" stroke="none" 
	d="
M290.464264,120.567978 
	C290.574738,123.615417 290.266968,126.725975 289.970032,130.187683 
	C285.990173,130.598099 281.965729,131.020370 278.014709,130.652878 
	C262.220001,129.183716 247.552292,132.056290 234.351334,141.194901 
	C233.674088,141.663742 232.880859,141.965012 231.664597,142.259613 
	C231.187576,142.174927 230.937302,141.944931 230.937302,141.944931 
	C239.621765,131.255783 250.082031,124.762268 264.600342,124.713547 
	C273.086700,124.685074 281.564392,122.078087 290.464264,120.567978 
z"/>
<path fill="#016C79" opacity="1.000000" stroke="none" 
	d="
M255.145569,411.419189 
	C255.820847,406.468903 256.447571,401.749634 257.638611,397.177399 
	C257.903381,396.160889 260.089355,395.474121 261.509552,394.970398 
	C263.513794,394.259491 265.628601,393.860413 267.947876,392.999908 
	C270.939880,394.374390 273.680145,396.077026 276.702271,397.991730 
	C274.020050,404.067169 271.050934,409.927948 268.095215,415.795471 
	C267.242920,417.487366 266.429138,419.198639 265.228363,420.977539 
	C261.672882,417.937103 258.486694,414.820160 255.145569,411.419189 
z"/>
<path fill="#018C96" opacity="1.000000" stroke="none" 
	d="
M184.380753,328.114136 
	C179.927948,325.396057 179.058487,322.462708 182.190781,317.877563 
	C184.591919,314.362701 185.081390,309.580963 187.302628,305.893738 
	C189.817566,301.718994 193.079330,297.908783 196.474503,294.380951 
	C198.574203,292.199249 200.324127,293.567596 200.963699,296.648987 
	C202.333344,300.152100 201.711548,302.607391 199.516876,305.474792 
	C196.821335,308.996613 195.175385,313.321777 192.671875,317.726440 
	C191.845947,320.021881 191.423874,321.890625 191.001801,323.759338 
	C191.001785,323.759338 190.687500,324.029938 190.074677,324.036926 
	C188.300705,325.006805 187.139572,325.969696 185.978424,326.932617 
	C185.541183,327.304413 185.103943,327.676178 184.380753,328.114136 
z"/>
<path fill="#01616E" opacity="1.000000" stroke="none" 
	d="
M288.590271,430.256836 
	C285.075165,428.572937 284.633636,426.525024 286.268646,423.163605 
	C289.179108,417.179901 291.450500,410.885345 293.998230,404.322021 
	C298.396057,404.624603 302.784821,405.325958 307.582703,406.087280 
	C305.055817,411.298676 301.937042,416.359711 299.312317,421.665192 
	C298.656250,422.991272 299.590973,425.104370 300.125854,427.044189 
	C296.638153,428.228424 292.819092,429.224213 288.590271,430.256836 
z"/>
<path fill="#03949E" opacity="1.000000" stroke="none" 
	d="
M194.013397,231.965195 
	C194.754364,230.354874 195.725876,228.977142 196.856033,227.284241 
	C198.860168,224.100067 200.770462,221.270325 202.537552,218.353790 
	C206.110229,212.457184 209.760544,211.154694 216.042038,214.053925 
	C218.235306,215.066223 220.111038,216.766464 221.961807,218.620407 
	C220.782272,221.107651 219.772720,223.127029 218.763153,225.146408 
	C215.812866,223.417404 212.862579,221.688400 209.912292,219.959396 
	C209.416946,220.101913 208.921600,220.244431 208.426254,220.386932 
	C208.954300,224.539978 209.482346,228.693024 210.098495,233.539001 
	C205.025040,236.614151 199.578964,236.035416 194.013397,231.965195 
z"/>
<path fill="#029AA4" opacity="1.000000" stroke="none" 
	d="
M180.489273,185.470001 
	C181.890656,183.008926 183.095383,180.852585 184.334030,178.635544 
	C187.189285,182.922409 187.187149,188.899261 184.266830,193.879333 
	C180.305801,200.634125 174.083801,203.130356 166.960526,203.482132 
	C171.453659,197.514450 175.873138,191.644592 180.489273,185.470001 
z"/>
<path fill="#018C96" opacity="1.000000" stroke="none" 
	d="
M207.040466,288.642395 
	C205.548370,286.742371 203.206894,284.578125 202.956787,282.194427 
	C202.789017,280.595428 205.585938,278.685303 207.273865,276.555817 
	C208.417984,276.465149 209.344589,276.733032 210.635712,277.080750 
	C209.693817,280.868652 208.387390,284.576691 207.040466,288.642395 
z"/>
<path fill="#038E98" opacity="1.000000" stroke="none" 
	d="
M209.681061,307.143005 
	C212.558167,306.544373 215.120361,306.085541 217.889709,305.898376 
	C212.281174,310.036194 206.465500,313.902313 200.314087,317.849976 
	C200.044540,317.283813 199.859268,316.382782 200.216476,316.028168 
	C203.209991,313.056274 206.303070,310.184631 209.681061,307.143005 
z"/>
<path fill="#038E98" opacity="1.000000" stroke="none" 
	d="
M219.007782,225.416443 
	C219.772720,223.127029 220.782272,221.107651 222.165283,218.911163 
	C224.295898,221.374115 226.053055,224.014160 227.810226,226.654205 
	C227.426758,227.164749 227.043304,227.675278 226.659836,228.185806 
	C224.190689,227.352692 221.721558,226.519592 219.007782,225.416443 
z"/>
<path fill="#038E98" opacity="1.000000" stroke="none" 
	d="
M191.315857,323.669800 
	C191.423874,321.890625 191.845947,320.021881 192.634018,318.076599 
	C194.526443,318.180756 196.052887,318.361542 197.824921,318.838165 
	C195.923660,320.616089 193.776779,322.098206 191.315857,323.669800 
z"/>
<path fill="#038E98" opacity="1.000000" stroke="none" 
	d="
M186.294769,326.856689 
	C187.139572,325.969696 188.300705,325.006805 189.869965,324.070007 
	C189.055771,324.991028 187.833450,325.885895 186.294769,326.856689 
z"/>
<path fill="#018490" opacity="1.000000" stroke="none" 
	d="
M218.181427,279.239502 
	C219.164200,279.955322 220.080063,280.918854 220.995941,281.882355 
	C220.667023,282.139404 220.338104,282.396423 220.009186,282.653442 
	C219.494431,281.891144 218.979675,281.128845 218.214706,280.172211 
	C218.014511,279.814331 218.064529,279.650757 218.181427,279.239502 
z"/>
<path fill="#03949E" opacity="1.000000" stroke="none" 
	d="
M186.359482,229.186798 
	C186.290710,228.810867 186.438858,228.249329 186.781403,227.815735 
	C186.842667,228.296173 186.709518,228.648682 186.359482,229.186798 
z"/>
<path fill="#00AAB2" opacity="1.000000" stroke="none" 
	d="
M125.764725,255.150742 
	C126.056458,255.167252 126.225800,255.361832 126.395142,255.556427 
	C126.281357,255.631790 126.167564,255.707153 125.840866,255.771622 
	C125.627968,255.760727 125.642334,255.328812 125.764725,255.150742 
z"/>
<path fill="#03949E" opacity="1.000000" stroke="none" 
	d="
M187.685181,217.273544 
	C187.663727,217.467987 187.375977,217.656387 186.821442,217.855560 
	C186.842743,217.666718 187.130829,217.467102 187.685181,217.273544 
z"/>
<path fill="#038E98" opacity="1.000000" stroke="none" 
	d="
M229.954376,142.952515 
	C229.878357,143.021194 229.802338,143.089890 229.858582,143.076019 
	C229.990845,142.993439 229.954376,142.952499 229.954376,142.952515 
z"/>
<path fill="#038E98" opacity="1.000000" stroke="none" 
	d="
M230.008057,143.014771 
	C230.169373,142.736481 230.313492,142.436859 230.697449,142.041077 
	C230.937302,141.944931 231.187576,142.174927 231.312729,142.298386 
	C231.131531,142.638260 230.825180,142.854675 230.236603,143.011780 
	C229.954376,142.952499 229.990845,142.993439 230.008057,143.014771 
z"/>
</svg>